<?xml version="1.0" encoding="utf-8"?>
<!-- Generator: Adobe Illustrator 24.3.0, SVG Export Plug-In . SVG Version: 6.00 Build 0)  -->
<svg version="1.2" baseProfile="tiny" id="Layer_1" xmlns="http://www.w3.org/2000/svg" xmlns:xlink="http://www.w3.org/1999/xlink"
	 x="0px" y="0px" viewBox="0 0 1050 1050" overflow="visible" xml:space="preserve">
<g>
	<path fill="#059CAE" d="M199.37,356.83c0.41,0.55,0.95,0.91,1.57,1.22c3.11,1.56,6.21,3.14,9.29,4.75c4.6,2.4,9.18,4.82,13.77,7.24
		c1.89,1,3.77,2.01,5.65,3.03c4.5,2.45,9.03,4.86,13.49,7.38c6.75,3.82,13.46,7.68,20.15,11.59c4.64,2.71,9.23,5.49,13.79,8.32
		c6.12,3.79,12.22,7.63,18.28,11.51c4.27,2.73,8.5,5.51,12.68,8.37c6.9,4.72,13.8,9.45,20.6,14.31c5.56,3.98,10.97,8.16,16.45,12.25
		c0.64,0.47,1.3,0.91,1.92,1.4c0.62,0.49,1.21,1.01,1.88,1.58c-0.41,1.01-0.79,1.97-1.19,2.92c-3.73,8.96-7.56,17.87-11.18,26.88
		c-5.25,13.09-10.1,26.32-14.28,39.8c-2.84,9.16-5.22,18.44-7.39,27.78c-2.45,10.56-5.89,20.78-10.42,30.63
		c-3.42,7.45-7.44,14.57-11.99,21.38c-2.38,3.56-5,6.93-7.68,10.26c-0.96,1.19-1.98,2.34-3.29,3.16c-0.57,0.35-1.17,0.67-1.8,0.88
		c-1.77,0.6-3.49-0.13-4.28-1.81c-0.28-0.6-0.46-1.27-0.55-1.92c-0.13-0.9-0.18-1.82-0.18-2.74c-0.06-10.26-0.11-20.52-0.16-30.79
		c-0.03-5.8-0.04-11.61-0.07-17.41c-0.1-16.25-0.21-32.49-0.32-48.74c-0.01-1.71-0.03-3.42-0.05-5.13c-0.01-0.6,0.05-1.23-0.43-1.86
		c-0.27,0.21-0.6,0.37-0.78,0.63c-2.53,3.59-5.03,7.21-7.56,10.81c-3.06,4.34-6.14,8.67-9.21,13.01c-1.84,2.59-3.72,5.15-5.5,7.77
		c-3.53,5.2-5.63,10.94-6.37,17.17c-0.14,1.21-0.14,2.44-0.14,3.66c0.05,14.72,0.1,29.44,0.16,44.16
		c0.07,16.74,0.16,33.47,0.21,50.21c0,1.4-0.12,2.81-0.35,4.19c-0.3,1.84-1.09,3.49-2.37,4.88c-1.56,1.69-3.51,2.12-5.69,1.67
		c-2.2-0.45-3.49-1.9-4.07-4.01c-0.19-0.7-0.3-1.44-0.34-2.17c-0.08-1.28-0.13-2.56-0.13-3.84c0.01-17.47,0.04-34.94,0.05-52.41
		c0.02-39.64,0.04-79.29,0.06-118.93c0-2.81,0.01-5.62,0-8.43c0-0.59,0.09-1.21-0.36-1.74c-0.77,0.22-1.1,0.84-1.49,1.36
		c-1.65,2.12-3.27,4.26-4.9,6.4c-2.55,3.36-5.09,6.72-7.63,10.08c-4.31,5.7-8.55,11.45-12.56,17.36c-2.15,3.18-3.6,6.65-3.92,10.52
		c-0.05,0.61-0.03,1.22-0.01,1.83c0.05,1.65,0.17,3.29,0.17,4.94c-0.02,30.11-0.06,60.23-0.1,90.34
		c-0.02,14.42-0.03,28.83-0.05,43.25c-0.01,8.43-0.02,16.86-0.05,25.29c-0.01,1.34-0.05,2.69-0.23,4.02
		c-0.3,2.22-1.17,4.24-2.76,5.87c-0.5,0.52-1.12,0.93-1.73,1.33c-0.77,0.51-1.71,0.53-2.47,0.22c-2.24-0.92-4.01-2.38-4.44-4.93
		c-0.18-1.08-0.26-2.18-0.26-3.28c-0.02-12.03-0.01-24.07-0.01-36.1c0-10.51,0.01-21.01,0.01-31.52
		c0.01-42.94,0.01-85.88,0.02-128.83c0-8.86-0.03-17.71,0.02-26.57c0.04-6.53,0.23-13.07,0.26-19.6c0.04-7.63,0-15.27-0.06-22.91
		c-0.01-1.89-0.17-3.78-0.36-5.66c-0.09-0.83-0.4-1.65-0.7-2.44c-0.18-0.48-0.85-0.6-1.25-0.27c-0.38,0.3-0.72,0.66-1.02,1.04
		c-3.2,4.01-6.38,8.03-9.58,12.04c-2.67,3.34-5.37,6.65-8.03,9.99c-4.29,5.4-8.6,10.8-12.84,16.24c-3.27,4.19-6.52,8.39-9.65,12.68
		c-4.5,6.16-8.94,12.37-13.29,18.64c-2.82,4.06-5.52,8.21-8.11,12.42c-2.02,3.27-3.78,6.69-5.67,10.04
		c-0.6,1.06-1.16,2.15-1.83,3.17c-1.55,2.35-2.33,4.96-2.73,7.7c-0.39,2.67-0.51,5.35-0.2,8.04c0.1,0.91,0.12,1.83,0.12,2.74
		c-0.04,6.23-0.11,12.46-0.16,18.69c-0.05,6.35-0.09,12.7-0.16,19.06c-0.08,7.15-0.18,14.29-0.27,21.43
		c-0.05,3.42-0.1,6.84-0.16,10.26c-0.03,1.9-0.24,3.78-0.71,5.62c-0.21,0.82-0.51,1.63-0.89,2.39c-0.68,1.38-1.39,1.47-2.54,0.38
		c-0.4-0.38-0.78-0.78-1.12-1.21c-1.87-2.33-3.8-4.63-5.57-7.03c-3.01-4.08-5.68-8.39-8.06-12.87c-4.18-7.87-7.3-16.11-8.96-24.89
		c-1.89-10.03-4.59-19.85-7.74-29.56c-3.88-11.96-7.9-23.87-12.2-35.69c-3.28-9-6.65-17.97-10.01-26.95c-1.5-4-3.05-7.98-4.57-11.97
		c-0.28-0.75-0.57-1.48-1.45-1.92c2.27-1.06,3.84-2.8,5.65-4.21c3.03-2.36,5.96-4.86,9-7.21c4.54-3.51,9.12-6.96,13.73-10.38
		c3.04-2.25,6.13-4.45,9.26-6.57c6.21-4.22,12.44-8.41,18.71-12.54c4.28-2.82,8.61-5.57,12.96-8.27c5.23-3.26,10.49-6.47,15.78-9.64
		c3.82-2.29,7.69-4.5,11.57-6.69c6.11-3.45,12.24-6.86,18.38-10.27c1.92-1.07,3.86-2.11,5.81-3.12c4.76-2.48,9.54-4.93,14.31-7.39
		c4.34-2.23,8.69-4.45,13.02-6.7c0.53-0.28,0.99-0.7,1.48-1.06C199.13,356.83,199.25,356.83,199.37,356.83z"/>
	<path fill="#059CAE" d="M999.88,461.99c-0.84,2.14-1.57,4.32-2.4,6.46c-0.84,2.17-1.6,4.36-2.41,6.54
		c-0.28,0.74-0.63,1.46-0.92,2.13c-0.43,0.11-0.73,0.25-1.02,0.25c-4.15-0.03-8.3,0.06-12.44-0.14
		c-9.14-0.44-17.49-8.27-17.88-18.54c-0.38-10.11,4.1-17.43,12.93-22.24c3.73-2.03,7.72-2.93,11.92-3c3.24-0.05,6.48-0.02,9.71-0.01
		c0.59,0,1.19,0.09,1.8,0.14c0.43,1.32,0.16,2.51-0.22,3.63c-1.58,4.58-3.22,9.13-4.88,13.8c-0.73,0.1-1.41,0.23-2.09,0.28
		c-1.92,0.14-3.85,0.14-5.75,0.38c-2.84,0.37-5.27,1.45-6.44,4.56c0.95,2.03,2.89,2.85,4.95,3.34c1.36,0.33,2.81,0.35,4.22,0.38
		c2.53,0.06,5.06,0,7.59,0.03c1.11,0.01,2.22,0.13,3.32,0.2C999.88,460.77,999.88,461.38,999.88,461.99z"/>
	<path fill="#059CAE" d="M446.47,634.07c-1.03-0.37-2.04-0.84-3.1-1.09c-5.35-1.31-9.51-5.8-9.7-12.4
		c-0.06-2.13-0.04-4.24,0.62-6.31c0.86-2.69,2.36-4.94,4.78-6.43c5.05-3.12,10.26-3.41,15.54-0.59c3.23,1.73,5.1,4.49,5.9,8.04
		c0.61,2.72,0.6,5.4-0.01,8.11c-1.07,4.76-3.95,7.84-8.53,9.38c-1.22,0.41-2.59,0.4-3.66,1.28
		C447.69,634.07,447.08,634.07,446.47,634.07z"/>
	<path fill="#059CAE" d="M913.52,564.74c-1.37-8.61-1.04-17.02-1.06-25.43c-0.02-8.51-0.01-17.03,0-25.54c0-1.1,0.06-2.2,0.09-3.39
		c3.54-1.06,7.11-0.87,10.58-1.38c3.5-0.51,7.05-0.69,10.58-1.01c3.5-0.32,6.98-0.92,10.42-0.91c0.75,1.13,0.48,2.17,0.49,3.15
		c0.02,7.6,0.01,15.2,0.01,22.8c0,10.44-0.06,20.88,0.03,31.31c0.05,5.98,0.32,11.95,0.52,17.93c0.03,1.01,0.25,2.01,0.36,3.01
		c0.12,1.09,0.21,2.19,0.32,3.36c-1.95,1.24-4.07,1.57-6.09,2.09c-5.32,1.36-10.78,1.8-16.25,1.91c-2.74,0.06-5.47,0.04-8.21,0.04
		c-76.73,0-153.45,0-230.18,0.01c-1.31,0-2.62,0-4.07,0c-0.34,1.06-0.69,1.99-0.94,2.94c-1.79,6.94-4.71,13.35-8.94,19.15
		c-3.88,5.31-8.66,9.58-14.49,12.7c-5.99,3.21-12.36,4.89-19.1,5.49c-10.22,0.9-20.22,0-30-3.11c-3.45-1.1-6.85-2.4-10.3-3.99
		c0.57-3.08,1.89-5.81,2.84-8.65c0.93-2.78,1.92-5.55,2.9-8.31c1.01-2.85,2.05-5.7,3.05-8.46c1.02-0.53,1.87-0.42,2.74,0.01
		c5.34,2.63,11.05,3.85,16.91,4.55c2.11,0.25,4.22,0.6,6.34,0.71c4.69,0.24,9.27-0.47,13.78-1.81c1.64-0.49,2.61-1.37,3.03-3.01
		c0.65-2.55,1.47-5.05,1.46-7.9c-0.58-0.08-1.14-0.23-1.7-0.24c-3.14-0.02-6.28-0.06-9.43,0c-6.46,0.12-12.69-1.09-18.77-3.14
		c-5.55-1.87-10.48-4.77-14.63-8.95c-5.36-5.39-8.34-11.92-9.05-19.43c-1.07-11.26,1.3-21.79,7.43-31.33
		c6.21-9.68,14.79-16.36,26.05-19.07c6.51-1.57,13.05-1.21,19.4,1.27c5.07,1.98,9.56,4.83,13.54,8.51
		c9.74,8.98,15.24,20.3,18.03,33.06c0.63,2.86,0.89,5.8,1.33,8.7c0.12,0.78,0.27,1.56,0.4,2.3c0.45,0.13,0.74,0.28,1.03,0.28
		c76.02,0.02,152.03,0.03,228.05,0.03C912.39,564.96,912.78,564.85,913.52,564.74z M636.07,533.46c-0.25,0.1-0.56,0.16-0.79,0.33
		c-4.82,3.76-7.91,8.56-9.04,14.63c-0.62,3.31-0.33,6.45,1.15,9.46c2.05,4.18,5.3,6.81,9.97,7.54c4.33,0.68,8.69,0.42,13.04,0.34
		c0.17,0,0.35-0.18,0.52-0.28C651.16,555.03,644.5,539.74,636.07,533.46z"/>
	<path fill="#059CAE" d="M371.2,580.51c2.21-8.7,4.38-17.22,6.51-25.6c1.05-0.66,1.89-0.44,2.77-0.09c3.11,1.21,6.23,2.4,9.35,3.55
		c5.14,1.9,10.43,3.16,15.84,4.05c4,0.65,8.01,1.22,12.04,1.53c4.34,0.34,8.69,0.74,13.04,0.77c19.76,0.15,39.52,0.19,59.28,0.25
		c0.79,0,1.59-0.08,2.35-0.12c0.61-0.86,0.26-1.67,0.22-2.44c-0.17-2.73-0.55-5.45-0.56-8.17c-0.07-13.98-0.05-27.96-0.05-41.95
		c0-0.6,0.07-1.2,0.12-1.99c5.28-1.08,10.63-1.25,15.92-1.82c5.21-0.56,10.43-1.2,15.59-1.48c0.84,1.35,0.53,2.59,0.54,3.78
		c0.02,16.21,0.01,32.42,0.02,48.63c0,3.85,0.04,7.7,0.06,11.55c0.03,5.17,0.15,10.33,0.83,15.47c0.25,1.88-0.03,2.37-1.79,2.93
		c-4.35,1.38-8.81,2.25-13.35,2.72c-7.38,0.76-14.77,0.59-22.17,0.6c-12.67,0.01-25.33-0.07-38,0.02
		c-9.13,0.07-18.24-0.31-27.34-0.74c-4.04-0.19-8.07-0.69-12.08-1.25c-6.31-0.88-12.63-1.82-18.78-3.5
		c-6.52-1.78-13.14-3.31-19.36-6.09C371.91,581,371.68,580.81,371.2,580.51z"/>
	<path fill="#059CAE" d="M577.6,592.5c-4.24,0.34-29.27,0.24-31.73-0.13c-0.07-0.52-0.18-1.1-0.21-1.67
		c-0.04-0.71-0.01-1.42-0.01-2.13c0-35.87,0-71.73,0-107.6c0-1.21,0.03-2.41,0.05-3.73c0.93-0.19,1.7-0.44,2.49-0.51
		c5.34-0.48,10.69-0.91,16.04-1.39c3.13-0.28,6.24-0.65,9.37-0.95c1.21-0.12,2.42-0.21,3.64-0.23c1.34-0.03,1.82,0.54,1.68,1.87
		c-0.21,2.01-0.52,4.02-0.61,6.04c-0.21,4.86-0.44,9.72-0.45,14.58c-0.04,30.7-0.02,61.4-0.03,92.1
		C577.82,589.95,577.94,591.16,577.6,592.5z"/>
	<path fill="#059CAE" d="M998.34,592.49c-3.63,0.32-29.19,0.25-31.72-0.09c-0.07-0.52-0.18-1.09-0.22-1.66
		c-0.04-0.71-0.01-1.42-0.01-2.13c0-30.69,0-61.37,0.01-92.06c0-1.19-0.19-2.41,0.27-3.65c0.4-0.12,0.77-0.3,1.15-0.34
		c10.34-1.12,20.69-2.08,31.18-2.94c0.13,0.66,0.31,1.13,0.31,1.61c0,1.11-0.02,2.23-0.14,3.34c-0.72,6.56-0.59,13.15-0.59,19.73
		c-0.03,24.81-0.01,49.63-0.02,74.44C998.57,589.92,998.69,591.13,998.34,592.49z"/>
	<path fill="#059CAE" d="M161.3,562.93c0-9.95,0-19.9,0-29.85c0-1.54,0.11-3.06,0.66-4.5c0.26-0.68,0.55-1.37,0.94-1.98
		c0.99-1.54,2.41-1.82,3.92-0.76c1.15,0.81,2.16,1.78,2.93,2.99c2.13,3.35,3.43,7.01,3.96,10.93c0.25,1.81,0.3,3.65,0.36,5.47
		c0.06,1.77,0.02,3.54,0.02,5.31c0.03,17.21,0.06,34.43,0.08,51.64c0,0.85-0.03,1.71-0.05,2.56c-0.03,1.57-0.64,2.97-1.29,4.35
		c-0.15,0.32-0.4,0.62-0.66,0.87c-0.76,0.74-1.64,0.99-2.68,0.58c-1.06-0.41-1.89-1.1-2.63-1.93c-1.54-1.7-2.52-3.74-3.33-5.85
		c-1.51-3.92-2.13-8-2.13-12.19c0-9.22,0-18.44,0-27.65C161.35,562.93,161.33,562.93,161.3,562.93z"/>
	<path fill="#059CAE" d="M941.21,617.94c-0.33,1.78-0.46,3.62-1.01,5.33c-1.51,4.62-4.82,7.32-9.54,8.36
		c-2.21,0.48-4.43,0.49-6.62-0.03c-4.54-1.07-7.79-3.69-9.4-8.16c-1.24-3.44-1.23-6.95-0.32-10.45c0.98-3.8,3.54-6.43,6.99-7.93
		c4.81-2.09,9.62-1.93,14.15,1.08c3.46,2.31,5.16,5.58,5.46,9.65c0.05,0.7,0.01,1.41,0.01,2.12
		C941.02,617.91,941.12,617.92,941.21,617.94z"/>
	<path fill="#059CAE" d="M657.69,473.88c0.46,2.28,0.54,6.71,0.21,10.69c-0.4,0.67-1.16,0.75-1.8,0.97
		c-5.46,1.85-10.92,3.67-16.39,5.51c-6.23,2.1-12.45,4.2-18.66,6.33c-1.07,0.37-2.11,0.71-3.22,0.25c-0.43-2.46-0.43-8.4,0.04-11.06
		c1.61-0.53,3.33-1.08,5.04-1.66c10.25-3.44,20.51-6.88,30.76-10.31c0.86-0.29,1.72-0.6,2.61-0.79
		C656.74,473.69,657.25,473.84,657.69,473.88z"/>
</g>
</svg>
